<?xml version="1.0" encoding="utf-8"?>
<!-- Generator: Adobe Illustrator 16.0.0, SVG Export Plug-In . SVG Version: 6.00 Build 0)  -->
<!DOCTYPE svg PUBLIC "-//W3C//DTD SVG 1.1//EN" "http://www.w3.org/Graphics/SVG/1.1/DTD/svg11.dtd">
<svg version="1.1" id="Layer_1" xmlns="http://www.w3.org/2000/svg" xmlns:xlink="http://www.w3.org/1999/xlink" x="0px" y="0px"
	 width="44px" height="40px" viewBox="0 0 44 40" enable-background="new 0 0 44 40" xml:space="preserve">
<g>
	<g>
		<g opacity="0.77">
			<g>
				<defs>
					<rect id="SVGID_1_" x="-9" y="-8" width="62" height="49"/>
				</defs>
				<clipPath id="SVGID_2_">
					<use xlink:href="#SVGID_1_"  overflow="visible"/>
				</clipPath>
				<path clip-path="url(#SVGID_2_)" fill="#51616A" d="M42.677,39.998c-0.337-1.037-2.884-1.107-4.023-2.674
					c-1.143-1.564-0.198-2.369,0.199-2.738C43.478,32.047,42.677,39.998,42.677,39.998 M34.964,29.092l1.523-0.764
					c0.535-0.268,1.206-0.049,1.493,0.484l1.261,2.359c0.285,0.531,0.093,1.219-0.426,1.52l-1.087,0.635
					c-0.518,0.305-1.212,0.139-1.542-0.367l-1.598-2.455C34.259,29.992,34.428,29.361,34.964,29.092 M25.385,17.367
					c1.568,3.471,2.736,5.895,3.618,7.588H16.857l4.476-7.588H25.385z M4.637,33.779l2.65,1.48c0.485,0.271,0.505,0.748,0.042,1.051
					l-3.423,2.273c-0.463,0.305-0.789,0.111-0.725-0.43l0.458-3.885C3.703,33.73,4.152,33.508,4.637,33.779 M0.92,24.955
					c-0.508,0-0.92-0.4-0.92-0.895v-5.798c0-0.495,0.412-0.896,0.92-0.896h10.298l-4.476,7.588H0.92z M21.818,12.945l-3.727,6.319
					l-3.355,5.691l-5.193,8.807c-0.279,0.469-0.905,0.635-1.39,0.361l-2.65-1.482c-0.486-0.271-0.656-0.877-0.376-1.35l3.737-6.336
					l4.476-7.588l4.063-6.889c0.278-0.472,0.905-0.637,1.389-0.364l2.651,1.477C21.928,11.866,22.097,12.473,21.818,12.945
					 M34.274,21.453c0.064,0.119,0.127,0.234,0.188,0.352c0.011,0.018,0.021,0.037,0.029,0.057c0.811,1.498,1.428,2.65,1.674,3.094
					c0.02,0.035,0.039,0.072,0.054,0.096c0.647,1.15-0.62,2.104-1.328,2.393c-0.708,0.285-1.118,0.572-2.181,0.055
					c-1.059-0.518-6.345-12.391-7.699-15.489C23.656,8.91,19.564,0.663,20.887,0.023c0.943-0.463,4.324,6.033,6.857,9.931
					c1.447,2.225,3.791,6.454,5.658,9.89c0.024,0.046,0.049,0.09,0.074,0.134c0.084,0.157,0.168,0.309,0.25,0.461
					c0.022,0.043,0.045,0.086,0.068,0.127c0.073,0.137,0.146,0.27,0.219,0.402c0.039,0.076,0.08,0.15,0.12,0.227
					C34.182,21.281,34.229,21.367,34.274,21.453 M43.079,24.955H38.14c-0.067-0.262-0.167-0.52-0.306-0.768
					c-0.134-0.232-0.51-0.932-0.985-1.816c-0.688-1.277-1.662-3.084-2.715-5.004h8.945c0.508,0,0.921,0.4,0.921,0.896v5.798
					C44,24.555,43.587,24.955,43.079,24.955"/>
			</g>
		</g>
	</g>
</g>
</svg>
