<?xml version="1.0" encoding="utf-8"?>
<!-- Generator: Adobe Illustrator 16.0.0, SVG Export Plug-In . SVG Version: 6.00 Build 0)  -->
<!DOCTYPE svg PUBLIC "-//W3C//DTD SVG 1.1//EN" "http://www.w3.org/Graphics/SVG/1.1/DTD/svg11.dtd">
<svg version="1.1" id="Layer_1" xmlns="http://www.w3.org/2000/svg" xmlns:xlink="http://www.w3.org/1999/xlink" x="0px" y="0px"
	 width="49.583px" height="39px" viewBox="0 0 49.583 39" enable-background="new 0 0 49.583 39" xml:space="preserve">
<g>
	<defs>
		<rect id="SVGID_1_" width="49.583" height="39"/>
	</defs>
	<clipPath id="SVGID_2_">
		<use xlink:href="#SVGID_1_"  overflow="visible"/>
	</clipPath>
	<g clip-path="url(#SVGID_2_)">
		<defs>
			<rect id="SVGID_3_" width="49.583" height="39"/>
		</defs>
		<clipPath id="SVGID_4_">
			<use xlink:href="#SVGID_3_"  overflow="visible"/>
		</clipPath>
		<g opacity="0.77" clip-path="url(#SVGID_4_)">
			<g>
				<defs>
					<rect id="SVGID_5_" x="-9" y="-8" width="67.583" height="48"/>
				</defs>
				<clipPath id="SVGID_6_">
					<use xlink:href="#SVGID_5_"  overflow="visible"/>
				</clipPath>
				<path clip-path="url(#SVGID_6_)" fill="#51616A" d="M47.518,39h-10.33c-1.136,0-2.066-0.976-2.066-2.166V15.167
					c0-1.192,0.931-2.167,2.066-2.167h10.33c1.136,0,2.065,0.975,2.065,2.167v21.667C49.583,38.024,48.653,39,47.518,39
					 M42.353,37.917c0.567,0,1.033-0.488,1.033-1.083c0-0.597-0.466-1.084-1.033-1.084c-0.568,0-1.033,0.487-1.033,1.084
					C41.319,37.429,41.784,37.917,42.353,37.917 M44.418,14.083h-4.132v1.083h4.132V14.083z M47.518,16.25h-10.33v18.417h10.33
					V16.25z M41.319,2.167H2.066v26h30.989v2.167h-6.198v3.25h3.099v2.166H13.428v-2.166h3.099v-3.25H2.066
					C0.929,30.334,0,29.358,0,28.167v-26C0,0.975,0.929,0,2.066,0h39.253c1.136,0,2.066,0.975,2.066,2.167v8.667h-2.066V2.167z"/>
			</g>
		</g>
	</g>
</g>
</svg>
