<?xml version="1.0" encoding="utf-8"?>
<!-- Generator: Adobe Illustrator 16.0.0, SVG Export Plug-In . SVG Version: 6.00 Build 0)  -->
<!DOCTYPE svg PUBLIC "-//W3C//DTD SVG 1.1//EN" "http://www.w3.org/Graphics/SVG/1.1/DTD/svg11.dtd">
<svg version="1.1" id="Layer_1" xmlns="http://www.w3.org/2000/svg" xmlns:xlink="http://www.w3.org/1999/xlink" x="0px" y="0px"
	 width="25.346px" height="20.273px" viewBox="0 0 25.346 20.273" enable-background="new 0 0 25.346 20.273" xml:space="preserve">
<g>
	<path fill="#FFFFFF" d="M24.647,0.373c-1.006,0.587-2.122,1.012-3.305,1.24C20.396,0.62,19.044,0,17.548,0
		c-2.871,0-5.199,2.29-5.199,5.116c0,0.401,0.045,0.791,0.134,1.167C8.161,6.068,4.329,4.032,1.764,0.935
		C1.316,1.69,1.06,2.571,1.06,3.51c0,1.774,0.918,3.342,2.313,4.26C2.521,7.742,1.719,7.512,1.018,7.129c0,0.021,0,0.042,0,0.063
		c0,2.479,1.792,4.549,4.172,5.02c-0.438,0.117-0.897,0.179-1.371,0.179c-0.335,0-0.661-0.031-0.978-0.094
		c0.661,2.038,2.58,3.514,4.856,3.557c-1.781,1.374-4.021,2.191-6.458,2.191c-0.421,0-0.835-0.024-1.24-0.069
		c2.301,1.449,5.035,2.298,7.971,2.298c9.564,0,14.795-7.799,14.795-14.564c0-0.222-0.005-0.442-0.014-0.662
		c1.017-0.722,1.897-1.621,2.594-2.646c-0.933,0.404-1.934,0.68-2.985,0.804C23.435,2.571,24.258,1.568,24.647,0.373"/>
</g>
</svg>
