<?xml version="1.0" encoding="utf-8"?>
<!-- Generator: Adobe Illustrator 16.0.0, SVG Export Plug-In . SVG Version: 6.00 Build 0)  -->
<!DOCTYPE svg PUBLIC "-//W3C//DTD SVG 1.1//EN" "http://www.w3.org/Graphics/SVG/1.1/DTD/svg11.dtd">
<svg version="1.1" id="Layer_1" xmlns="http://www.w3.org/2000/svg" xmlns:xlink="http://www.w3.org/1999/xlink" x="0px" y="0px"
	 width="40.061px" height="40.67px" viewBox="0 0 40.061 40.67" enable-background="new 0 0 40.061 40.67" xml:space="preserve">
<g>
	<defs>
		<rect id="SVGID_1_" width="40.061" height="40.67"/>
	</defs>
	<clipPath id="SVGID_2_">
		<use xlink:href="#SVGID_1_"  overflow="visible"/>
	</clipPath>
	<g clip-path="url(#SVGID_2_)">
		<defs>
			<rect id="SVGID_3_" width="40.06" height="40.67"/>
		</defs>
		<clipPath id="SVGID_4_">
			<use xlink:href="#SVGID_3_"  overflow="visible"/>
		</clipPath>
		<g opacity="0.77" clip-path="url(#SVGID_4_)">
			<g>
				<defs>
					<rect id="SVGID_5_" x="-9" y="-8" width="58.061" height="49.67"/>
				</defs>
				<clipPath id="SVGID_6_">
					<use xlink:href="#SVGID_5_"  overflow="visible"/>
				</clipPath>
				<path clip-path="url(#SVGID_6_)" fill="#51616A" d="M28.819,36.647l5.713-16.423c0.884-2.542,1.705-5.977,1.605-8.742
					c1.406,2.632,2.205,5.647,2.205,8.852C38.343,27.367,34.494,33.488,28.819,36.647 M20.03,38.926c-1.852,0-3.64-0.28-5.325-0.801
					l5.641-16.412l5.815,16.144C24.245,38.548,22.182,38.926,20.03,38.926 M1.718,20.335c0-2.75,0.589-5.361,1.645-7.71
					l8.832,24.517C6.002,34.159,1.718,27.754,1.718,20.335 M20.03,1.744c4.776,0,9.127,1.858,12.388,4.901
					c-1.598-0.043-3.192,0.921-3.259,3.129c-0.134,4.465,5.259,5.416,2.354,14.396l-2.405,7.428l-6.546-19.577
					c-0.102-0.304,0.017-0.476,0.384-0.476h1.851c0.096,0,0.174-0.083,0.174-0.185v-1.113c0-0.103-0.078-0.19-0.174-0.186
					c-3.505,0.156-6.989,0.157-10.453,0c-0.096-0.004-0.175,0.084-0.175,0.186v1.113c0,0.102,0.079,0.185,0.175,0.185h1.861
					c0.414,0,0.53,0.14,0.628,0.411l2.69,7.47l-4.047,12.402l-6.65-19.889c-0.084-0.249,0.016-0.394,0.253-0.394H11.2
					c0.096,0,0.175-0.083,0.175-0.185v-1.113c0-0.103-0.08-0.191-0.175-0.186c-2.225,0.12-4.458,0.145-6.539,0.166
					C7.925,5.122,13.589,1.744,20.03,1.744 M20.03,0C8.97,0,0,9.106,0,20.335C0,31.564,8.97,40.67,20.03,40.67
					s20.03-9.105,20.03-20.335C40.061,9.106,31.091,0,20.03,0"/>
			</g>
		</g>
	</g>
</g>
</svg>
